<svg width="17" height="20" viewBox="0 0 17 20" fill="none" xmlns="http://www.w3.org/2000/svg">
<path fill-rule="evenodd" clip-rule="evenodd" d="M16.3257 9.26249C16.7317 9.87052 16.9646 10.575 17 11.3023L16.9734 11.4862C17.004 12.4815 16.6701 13.4543 16.033 14.2264C15.2193 15.1 14.1069 15.6457 12.91 15.7585C9.96167 16.0805 6.98632 16.0805 4.03799 15.7585C2.85854 15.638 1.76557 15.0925 0.968272 14.2264C0.320616 13.4654 -0.0232529 12.4972 0.00122208 11.5037V11.3811C0.0499997 10.6321 0.301205 9.90958 0.728727 9.28875L0.799703 9.20121C1.24432 8.70336 1.55006 8.09996 1.6869 7.45026V6.69736V5.64679C1.81271 5.33051 2.1376 5.13657 2.47989 5.17342C2.82218 5.21027 3.09705 5.46877 3.15079 5.80438V6.67985V7.60785C3.15424 7.63986 3.15424 7.67214 3.15079 7.70415C2.96606 8.60734 2.54382 9.44669 1.92645 10.138C1.6887 10.5117 1.55412 10.9402 1.53608 11.3811V11.5737C1.51638 12.1938 1.72433 12.8001 2.12163 13.2809C2.67247 13.8423 3.40907 14.1902 4.19768 14.2614C7.05197 14.5679 9.93151 14.5679 12.7858 14.2614C13.596 14.1881 14.3506 13.8235 14.9062 13.2371C15.284 12.7677 15.4819 12.1818 15.4651 11.5825V11.3811C15.4469 10.9388 15.3157 10.5081 15.0836 10.1292C14.4406 9.44578 13.9935 8.60575 13.7883 7.69539C13.7849 7.66338 13.7849 7.6311 13.7883 7.59909V6.66234V5.78687C13.531 3.14294 10.8606 1.50581 8.5361 1.50581C7.54786 1.50357 6.57587 1.75391 5.7148 2.23245C5.47637 2.37389 5.17884 2.37606 4.93831 2.23812C4.69779 2.10019 4.55241 1.84401 4.55891 1.56957C4.56541 1.29514 4.72276 1.04594 4.96955 0.919245C6.03654 0.324432 7.23966 0.00804209 8.46512 0C11.5348 0 14.9772 2.15366 15.3675 5.61177V6.64483V7.41524C15.5008 8.06616 15.807 8.67043 16.2548 9.16619C16.2813 9.19613 16.305 9.22836 16.3257 9.26249ZM8.79873 18.4308C9.32766 18.3531 9.80302 18.0723 10.1193 17.6507H10.1283C10.4017 17.3275 10.8913 17.2822 11.2219 17.5495C11.5525 17.8168 11.5988 18.2954 11.3254 18.6186C10.6514 19.4802 9.60866 19.9899 8.49915 20C7.3928 19.9872 6.35394 19.4778 5.68186 18.6186C5.40845 18.2954 5.4548 17.8168 5.78537 17.5495C6.11595 17.2822 6.60558 17.3275 6.87898 17.6507C6.99906 17.8076 7.14152 17.9469 7.30203 18.0642C7.73104 18.3765 8.2698 18.5084 8.79873 18.4308Z" fill="#3C3A36"/>
</svg>
